<svg aria-hidden="true" style="width:0;height:0;position:absolute;overflow:hidden" xmlns="http://www.w3.org/2000/svg"><defs><symbol id="place-weather" viewBox="0 0 32 32"><path d="M16 2A11.018 11.018 0 0 0 5 13a10.892 10.892 0 0 0 2.216 6.6s.3.395.349.452L16 30l8.439-9.953c.044-.053.345-.447.345-.447l.001-.003A10.89 10.89 0 0 0 27 13 11.018 11.018 0 0 0 16 2zm0 15a4.004 4.004 0 0 1-3.695-2.469A4 4 0 1 1 20 13a4.004 4.004 0 0 1-4 4z"/></symbol><symbol id="already-read" viewBox="0 0 32 32"><path d="M28.779 6.389c-.277.008-.54.124-.733.323L11.733 23.024 5.02 16.312a1.065 1.065 0 1 0-1.508 1.507l7.467 7.467a1.066 1.066 0 0 0 1.508 0L29.554 8.219a1.072 1.072 0 0 0 .239-1.18 1.066 1.066 0 0 0-1.013-.65z"/></symbol><symbol id="pg-favorite-cut" viewBox="0 0 32 32"><path stroke-linejoin="round" stroke-linecap="round" stroke-width="1.778" d="M27.788 6.146a7.345 7.345 0 0 0-5.187-2.15 7.33 7.33 0 0 0-5.187 2.15l-1.413 1.413-1.413-1.413a7.333 7.333 0 0 0-10.374 0 7.333 7.333 0 0 0 0 10.374l11.787 11.787L27.788 16.52a7.345 7.345 0 0 0 2.149-5.187 7.33 7.33 0 0 0-2.149-5.187z"/></symbol><symbol id="pg-read-cut" viewBox="0 0 32 32"><path stroke-linejoin="round" stroke-linecap="round" stroke-width="1.778" d="M2.667 4h8A5.332 5.332 0 0 1 16 9.333V28a4.003 4.003 0 0 0-4-4H2.667V4z"/><path stroke-linejoin="round" stroke-linecap="round" stroke-width="1.778" d="M29.333 4h-8A5.334 5.334 0 0 0 16 9.333V28a4.003 4.003 0 0 1 4-4h9.333V4z"/></symbol><symbol id="pg-home-cut" viewBox="0 0 32 32"><path stroke-linejoin="round" stroke-linecap="round" stroke-width="1.778" d="m4 12 12-9.333L28 12v14.667a2.668 2.668 0 0 1-2.667 2.667H6.666a2.668 2.668 0 0 1-2.667-2.667V12z"/><path stroke-linejoin="round" stroke-linecap="round" stroke-width="1.778" d="M12 29.333V16h8v13.333"/></symbol><symbol id="btn-close" viewBox="0 0 32 32"><path stroke-linejoin="round" stroke-linecap="round" stroke-width="2.667" d="M24 8 8 24M8 8l16 16"/></symbol><symbol id="btn-burger" viewBox="0 0 32 32"><path stroke-linejoin="round" stroke-linecap="round" stroke-width="2.667" d="M4 16h24M4 8h24M4 24h24"/></symbol><symbol id="moon" viewBox="0 0 32 32"><path stroke-linejoin="round" stroke-linecap="round" stroke-width="2.286" d="M28 17.053a11.994 11.994 0 0 1-7.873 10.182A12.003 12.003 0 0 1 4.338 18.56 12.002 12.002 0 0 1 14.946 3.999 9.335 9.335 0 0 0 28 17.053z"/></symbol><symbol id="sun" viewBox="0 0 32 32"><path stroke-linejoin="round" stroke-linecap="round" stroke-width="2.286" d="M16 1.778v2.586m0 23.272v2.586M5.941 5.941l1.836 1.836m16.447 16.446 1.836 1.836M1.778 16h2.586m23.273 0h2.586M5.941 26.059l1.836-1.836M24.224 7.777l1.836-1.836M22.465 16a6.465 6.465 0 1 1-12.93 0 6.465 6.465 0 0 1 12.93 0z"/></symbol><symbol id="calendar" viewBox="0 0 32 32"><path d="M22.667 4H28a1.335 1.335 0 0 1 1.334 1.334v21.333A1.335 1.335 0 0 1 28 28.001H4a1.335 1.335 0 0 1-1.334-1.334V5.334A1.335 1.335 0 0 1 4 4h5.333V1.333H12V4h8V1.333h2.667V4zm4 10.667H5.334v10.667h21.333V14.667zm-6.667-8h-8v2.667H9.333V6.667h-4V12h21.333V6.667h-4v2.667h-2.667V6.667zM8.001 17.334h2.667v2.667H8.001v-2.667zm6.666 0h2.667v2.667h-2.667v-2.667zm6.667 0h2.667v2.667h-2.667v-2.667z"/></symbol><symbol id="heart-border" viewBox="0 0 32 32"><path stroke-linejoin="round" stroke-linecap="round" stroke-width="2" d="M9.333 4c-3.681 0-6.667 2.955-6.667 6.6 0 2.943 1.167 9.927 12.651 16.987a1.316 1.316 0 0 0 1.366 0c11.484-7.06 12.651-14.044 12.651-16.987 0-3.645-2.985-6.6-6.667-6.6S16 8 16 8s-2.985-4-6.667-4z"/></symbol><symbol id="heart-fill" viewBox="0 0 32 32"><path d="M9.333 4c-3.681 0-6.667 2.955-6.667 6.6 0 2.943 1.167 9.927 12.651 16.987a1.316 1.316 0 0 0 1.366 0c11.484-7.06 12.651-14.044 12.651-16.987 0-3.645-2.985-6.6-6.667-6.6S16 8 16 8s-2.985-4-6.667-4z"/></symbol><symbol id="scroll-down" viewBox="0 0 32 32"><path d="M3.76 9.143 0 12.622l16 14.806 16-14.806-3.76-3.479L16 20.445 3.76 9.143z"/></symbol><symbol id="scroll-up" viewBox="0 0 32 32"><path d="M3.76 25.143 0 21.664 16 6.858l16 14.806-3.76 3.479L16 13.841 3.76 25.143z"/></symbol><symbol id="search" viewBox="0 0 32 32"><path d="M13.464 23.726c2.277 0 4.489-.763 6.283-2.165l5.64 5.64 1.814-1.814-5.64-5.64a10.202 10.202 0 0 0 2.167-6.284c0-5.659-4.604-10.263-10.264-10.263S3.2 7.804 3.2 13.463s4.604 10.263 10.264 10.263zm0-17.96c4.245 0 7.698 3.452 7.698 7.697s-3.452 7.697-7.698 7.697c-4.245 0-7.698-3.452-7.698-7.697s3.452-7.697 7.698-7.697z"/></symbol><symbol id="icon-next" viewBox="0 0 16 32"><path fill="#4440f6" style="fill:var(--color1,#4440f6)" d="M16 16a2.309 2.309 0 0 0-.643-1.567L3.165 1.468c-.36-.375-.784-.579-1.301-.579-1.05 0-1.865.886-1.865 2.027 0 .545.204 1.056.564 1.448L11.533 16 .563 27.636a2.1 2.1 0 0 0-.564 1.448c0 1.142.815 2.027 1.865 2.027.501 0 .94-.204 1.301-.579L15.357 17.55c.439-.443.642-.954.642-1.55z"/></symbol><symbol id="icon-prev" viewBox="0 0 16 32"><path fill="#4440f6" style="fill:var(--color1,#4440f6)" d="M0 16c0 .596.204 1.107.642 1.55l12.192 12.982c.345.375.784.579 1.301.579 1.034 0 1.865-.886 1.865-2.027 0-.562-.219-1.056-.564-1.448L4.451 16 15.436 4.364c.345-.392.564-.903.564-1.448 0-1.141-.831-2.027-1.865-2.027-.517 0-.956.204-1.301.579L.642 14.433C.203 14.893 0 15.404 0 16z"/></symbol></defs></svg>