<svg aria-hidden="true" style="width:0;height:0;position:absolute;overflow:hidden" xmlns="http://www.w3.org/2000/svg"><defs><symbol id="already-read" viewBox="0 0 32 32"><path d="M28.779 6.389c-.277.008-.54.124-.733.323L11.733 23.024 5.02 16.312a1.065 1.065 0 1 0-1.508 1.507l7.467 7.467a1.066 1.066 0 0 0 1.508 0L29.554 8.219a1.072 1.072 0 0 0 .239-1.18 1.066 1.066 0 0 0-1.013-.65z"/></symbol><symbol id="pg-favorite-cut" viewBox="0 0 32 32"><path stroke-linejoin="round" stroke-linecap="round" stroke-width="1.778" d="M27.788 6.146a7.345 7.345 0 0 0-5.187-2.15 7.33 7.33 0 0 0-5.187 2.15l-1.413 1.413-1.413-1.413a7.333 7.333 0 0 0-10.374 0 7.333 7.333 0 0 0 0 10.374l11.787 11.787L27.788 16.52a7.345 7.345 0 0 0 2.149-5.187 7.33 7.33 0 0 0-2.149-5.187z"/></symbol><symbol id="pg-read-cut" viewBox="0 0 32 32"><path stroke-linejoin="round" stroke-linecap="round" stroke-width="1.778" d="M2.667 4h8A5.332 5.332 0 0 1 16 9.333V28a4.003 4.003 0 0 0-4-4H2.667V4z"/><path stroke-linejoin="round" stroke-linecap="round" stroke-width="1.778" d="M29.333 4h-8A5.334 5.334 0 0 0 16 9.333V28a4.003 4.003 0 0 1 4-4h9.333V4z"/></symbol><symbol id="pg-home-cut" viewBox="0 0 32 32"><path stroke-linejoin="round" stroke-linecap="round" stroke-width="1.778" d="m4 12 12-9.333L28 12v14.667a2.668 2.668 0 0 1-2.667 2.667H6.666a2.668 2.668 0 0 1-2.667-2.667V12z"/><path stroke-linejoin="round" stroke-linecap="round" stroke-width="1.778" d="M12 29.333V16h8v13.333"/></symbol><symbol id="btn-close" viewBox="0 0 32 32"><path stroke-linejoin="round" stroke-linecap="round" stroke-width="2.667" d="M24 8 8 24M8 8l16 16"/></symbol><symbol id="btn-burger" viewBox="0 0 32 32"><path stroke-linejoin="round" stroke-linecap="round" stroke-width="2.667" d="M4 16h24M4 8h24M4 24h24"/></symbol><symbol id="moon" viewBox="0 0 32 32"><path stroke-linejoin="round" stroke-linecap="round" stroke-width="2.286" d="M28 17.053a11.994 11.994 0 0 1-7.873 10.182A12.003 12.003 0 0 1 4.338 18.56 12.002 12.002 0 0 1 14.946 3.999 9.335 9.335 0 0 0 28 17.053z"/></symbol><symbol id="sun" viewBox="0 0 32 32"><path stroke-linejoin="round" stroke-linecap="round" stroke-width="2.286" d="M16 1.778v2.586m0 23.272v2.586M5.941 5.941l1.836 1.836m16.447 16.446 1.836 1.836M1.778 16h2.586m23.273 0h2.586M5.941 26.059l1.836-1.836M24.224 7.777l1.836-1.836M22.465 16a6.465 6.465 0 1 1-12.93 0 6.465 6.465 0 0 1 12.93 0z"/></symbol><symbol id="calendar" viewBox="0 0 32 32"><path d="M22.667 4H28a1.335 1.335 0 0 1 1.334 1.334v21.333A1.335 1.335 0 0 1 28 28.001H4a1.335 1.335 0 0 1-1.334-1.334V5.334A1.335 1.335 0 0 1 4 4h5.333V1.333H12V4h8V1.333h2.667V4zm4 10.667H5.334v10.667h21.333V14.667zm-6.667-8h-8v2.667H9.333V6.667h-4V12h21.333V6.667h-4v2.667h-2.667V6.667zM8.001 17.334h2.667v2.667H8.001v-2.667zm6.666 0h2.667v2.667h-2.667v-2.667zm6.667 0h2.667v2.667h-2.667v-2.667z"/></symbol><symbol id="heart-border" viewBox="0 0 32 32"><path stroke-linejoin="round" stroke-linecap="round" stroke-width="2" d="M9.333 4c-3.681 0-6.667 2.955-6.667 6.6 0 2.943 1.167 9.927 12.651 16.987a1.316 1.316 0 0 0 1.366 0c11.484-7.06 12.651-14.044 12.651-16.987 0-3.645-2.985-6.6-6.667-6.6S16 8 16 8s-2.985-4-6.667-4z"/></symbol><symbol id="heart-fill" viewBox="0 0 32 32"><path d="M9.333 4c-3.681 0-6.667 2.955-6.667 6.6 0 2.943 1.167 9.927 12.651 16.987a1.316 1.316 0 0 0 1.366 0c11.484-7.06 12.651-14.044 12.651-16.987 0-3.645-2.985-6.6-6.667-6.6S16 8 16 8s-2.985-4-6.667-4z"/></symbol><symbol id="scroll-down" viewBox="0 0 32 32"><path d="M3.76 9.143 0 12.622l16 14.806 16-14.806-3.76-3.479L16 20.445 3.76 9.143z"/></symbol><symbol id="search" viewBox="0 0 32 32"><path d="M13.464 23.726c2.277 0 4.489-.763 6.283-2.165l5.64 5.64 1.814-1.814-5.64-5.64a10.202 10.202 0 0 0 2.167-6.284c0-5.659-4.604-10.263-10.264-10.263S3.2 7.804 3.2 13.463s4.604 10.263 10.264 10.263zm0-17.96c4.245 0 7.698 3.452 7.698 7.697s-3.452 7.697-7.698 7.697c-4.245 0-7.698-3.452-7.698-7.697s3.452-7.697 7.698-7.697z"/></symbol><symbol id="toggle-dark" viewBox="0 0 61 32"><path fill="#4b48db" style="fill:var(--color1,#4b48db)" d="M15.238 1.524h30.476C53.709 1.524 60.19 8.005 60.19 16s-6.481 14.476-14.476 14.476H15.238C7.243 30.476.762 23.995.762 16S7.243 1.524 15.238 1.524z"/><path fill="#fff" style="fill:var(--color2,#fff)" d="M57.905 16c0 6.733-5.458 12.19-12.19 12.19S33.525 22.732 33.525 16c0-6.733 5.458-12.19 12.19-12.19S57.905 9.268 57.905 16z"/><path fill="none" stroke="#fff" style="stroke:var(--color2,#fff)" stroke-width="1.524" d="M15.238 1.524h30.476C53.709 1.524 60.19 8.005 60.19 16s-6.481 14.476-14.476 14.476H15.238C7.243 30.476.762 23.995.762 16S7.243 1.524 15.238 1.524z"/></symbol><symbol id="toggle-light" viewBox="0 0 61 32"><path fill="#fff" style="fill:var(--color2,#fff)" d="M15.238 1.223h30.476c8.161 0 14.777 6.616 14.777 14.777s-6.616 14.777-14.777 14.777H15.238C7.077 30.777.461 24.161.461 16S7.077 1.223 15.238 1.223z"/><path fill="#4b48db" style="fill:var(--color1,#4b48db)" d="M25.905 16c0 6.733-5.458 12.19-12.19 12.19S1.525 22.732 1.525 16c0-6.733 5.458-12.19 12.19-12.19S25.905 9.268 25.905 16z"/><path fill="none" stroke="#4b48db" style="stroke:var(--color1,#4b48db)" stroke-width=".921" d="M15.238 1.223h30.476c8.161 0 14.777 6.616 14.777 14.777s-6.616 14.777-14.777 14.777H15.238C7.077 30.777.461 24.161.461 16S7.077 1.223 15.238 1.223z"/></symbol></defs></svg>