<svg aria-hidden="true" style="width:0;height:0;position:absolute;overflow:hidden" xmlns="http://www.w3.org/2000/svg"><defs><symbol id="already-read" viewBox="0 0 32 32"><path d="M28.779 6.389c-.277.008-.54.124-.733.323L11.733 23.024 5.02 16.312a1.065 1.065 0 1 0-1.508 1.507l7.467 7.467a1.066 1.066 0 0 0 1.508 0L29.554 8.219a1.072 1.072 0 0 0 .239-1.18 1.066 1.066 0 0 0-1.013-.65z"/></symbol><symbol id="pg-favorite-cut" viewBox="0 0 32 32"><path stroke-linejoin="round" stroke-linecap="round" stroke-width="1.778" d="M27.788 6.146a7.345 7.345 0 0 0-5.187-2.15 7.33 7.33 0 0 0-5.187 2.15l-1.413 1.413-1.413-1.413a7.333 7.333 0 0 0-10.374 0 7.333 7.333 0 0 0 0 10.374l11.787 11.787L27.788 16.52a7.345 7.345 0 0 0 2.149-5.187 7.33 7.33 0 0 0-2.149-5.187z"/></symbol><symbol id="pg-read-cut" viewBox="0 0 32 32"><path stroke-linejoin="round" stroke-linecap="round" stroke-width="1.778" d="M2.667 4h8A5.332 5.332 0 0 1 16 9.333V28a4.003 4.003 0 0 0-4-4H2.667V4z"/><path stroke-linejoin="round" stroke-linecap="round" stroke-width="1.778" d="M29.333 4h-8A5.334 5.334 0 0 0 16 9.333V28a4.003 4.003 0 0 1 4-4h9.333V4z"/></symbol><symbol id="pg-home-cut" viewBox="0 0 32 32"><path stroke-linejoin="round" stroke-linecap="round" stroke-width="1.778" d="m4 12 12-9.333L28 12v14.667a2.668 2.668 0 0 1-2.667 2.667H6.666a2.668 2.668 0 0 1-2.667-2.667V12z"/><path stroke-linejoin="round" stroke-linecap="round" stroke-width="1.778" d="M12 29.333V16h8v13.333"/></symbol><symbol id="btn-close" viewBox="0 0 32 32"><path stroke-linejoin="round" stroke-linecap="round" stroke-width="2.667" d="M24 8 8 24M8 8l16 16"/></symbol><symbol id="btn-burger" viewBox="0 0 32 32"><path stroke-linejoin="round" stroke-linecap="round" stroke-width="2.667" d="M4 16h24M4 8h24M4 24h24"/></symbol><symbol id="moon" viewBox="0 0 32 32"><path stroke-linejoin="round" stroke-linecap="round" stroke-width="2.286" d="M28 17.053a11.994 11.994 0 0 1-7.873 10.182A12.003 12.003 0 0 1 4.338 18.56 12.002 12.002 0 0 1 14.946 3.999 9.335 9.335 0 0 0 28 17.053z"/></symbol><symbol id="sun" viewBox="0 0 32 32"><path stroke-linejoin="round" stroke-linecap="round" stroke-width="2.286" d="M16 1.778v2.586m0 23.272v2.586M5.941 5.941l1.836 1.836m16.447 16.446 1.836 1.836M1.778 16h2.586m23.273 0h2.586M5.941 26.059l1.836-1.836M24.224 7.777l1.836-1.836M22.465 16a6.465 6.465 0 1 1-12.93 0 6.465 6.465 0 0 1 12.93 0z"/></symbol><symbol id="calendar" viewBox="0 0 32 32"><path d="M22.667 4H28a1.335 1.335 0 0 1 1.334 1.334v21.333A1.335 1.335 0 0 1 28 28.001H4a1.335 1.335 0 0 1-1.334-1.334V5.334A1.335 1.335 0 0 1 4 4h5.333V1.333H12V4h8V1.333h2.667V4zm4 10.667H5.334v10.667h21.333V14.667zm-6.667-8h-8v2.667H9.333V6.667h-4V12h21.333V6.667h-4v2.667h-2.667V6.667zM8.001 17.334h2.667v2.667H8.001v-2.667zm6.666 0h2.667v2.667h-2.667v-2.667zm6.667 0h2.667v2.667h-2.667v-2.667z"/></symbol><symbol id="heart-border" viewBox="0 0 32 32"><path stroke-linejoin="round" stroke-linecap="round" stroke-width="2" d="M9.333 4c-3.681 0-6.667 2.955-6.667 6.6 0 2.943 1.167 9.927 12.651 16.987a1.316 1.316 0 0 0 1.366 0c11.484-7.06 12.651-14.044 12.651-16.987 0-3.645-2.985-6.6-6.667-6.6S16 8 16 8s-2.985-4-6.667-4z"/></symbol><symbol id="heart-fill" viewBox="0 0 32 32"><path d="M9.333 4c-3.681 0-6.667 2.955-6.667 6.6 0 2.943 1.167 9.927 12.651 16.987a1.316 1.316 0 0 0 1.366 0c11.484-7.06 12.651-14.044 12.651-16.987 0-3.645-2.985-6.6-6.667-6.6S16 8 16 8s-2.985-4-6.667-4z"/></symbol><symbol id="scroll-down" viewBox="0 0 32 32"><path d="M3.76 9.143 0 12.622l16 14.806 16-14.806-3.76-3.479L16 20.445 3.76 9.143z"/></symbol><symbol id="search" viewBox="0 0 32 32"><path d="M13.464 23.726c2.277 0 4.489-.763 6.283-2.165l5.64 5.64 1.814-1.814-5.64-5.64a10.202 10.202 0 0 0 2.167-6.284c0-5.659-4.604-10.263-10.264-10.263S3.2 7.804 3.2 13.463s4.604 10.263 10.264 10.263zm0-17.96c4.245 0 7.698 3.452 7.698 7.697s-3.452 7.697-7.698 7.697c-4.245 0-7.698-3.452-7.698-7.697s3.452-7.697 7.698-7.697z"/></symbol><symbol id="toggle-dark" viewBox="0 0 61 32"><path fill="#4b48db" style="fill:var(--color1,#4b48db)" d="M15.238 1.524h30.476C53.709 1.524 60.19 8.005 60.19 16s-6.481 14.476-14.476 14.476H15.238C7.243 30.476.762 23.995.762 16S7.243 1.524 15.238 1.524z"/><path fill="#fff" style="fill:var(--color2,#fff)" d="M57.905 16c0 6.733-5.458 12.19-12.19 12.19S33.525 22.732 33.525 16c0-6.733 5.458-12.19 12.19-12.19S57.905 9.268 57.905 16z"/><path fill="none" stroke="#fff" style="stroke:var(--color2,#fff)" stroke-width="1.524" d="M15.238 1.524h30.476C53.709 1.524 60.19 8.005 60.19 16s-6.481 14.476-14.476 14.476H15.238C7.243 30.476.762 23.995.762 16S7.243 1.524 15.238 1.524z"/></symbol><symbol id="toggle-light" viewBox="0 0 61 32"><path fill="#fff" style="fill:var(--color2,#fff)" d="M15.238 1.223h30.476c8.161 0 14.777 6.616 14.777 14.777s-6.616 14.777-14.777 14.777H15.238C7.077 30.777.461 24.161.461 16S7.077 1.223 15.238 1.223z"/><path fill="#4b48db" style="fill:var(--color1,#4b48db)" d="M25.905 16c0 6.733-5.458 12.19-12.19 12.19S1.525 22.732 1.525 16c0-6.733 5.458-12.19 12.19-12.19S25.905 9.268 25.905 16z"/><path fill="none" stroke="#4b48db" style="stroke:var(--color1,#4b48db)" stroke-width=".921" d="M15.238 1.223h30.476c8.161 0 14.777 6.616 14.777 14.777s-6.616 14.777-14.777 14.777H15.238C7.077 30.777.461 24.161.461 16S7.077 1.223 15.238 1.223z"/></symbol><symbol id="icon-close" viewBox="0 0 18 18"><path d="M15 4.108 13.892 3 9.5 7.392 5.108 3 4 4.108 8.392 8.5 4 12.892 5.108 14 9.5 9.608 13.892 14 15 12.892 10.608 8.5 15 4.108Z"/></symbol><symbol id="icon-close-tag-x" viewBox="0 0 32 32"><path d="m26.667 7.303-1.97-1.97-7.808 7.808-7.808-7.808-1.97 1.97 7.808 7.808-7.808 7.808 1.97 1.97 7.808-7.808 7.808 7.808 1.97-1.97-7.808-7.808 7.808-7.808z"/></symbol><symbol id="icon-email" viewBox="0 0 32 32"><path d="M14.469.069c-5 .519-9.381 3.237-12.044 7.475C-.619 12.382-.8 18.65 1.956 23.657a16.34 16.34 0 0 0 5.256 5.706c1.488.994 3.75 1.944 5.475 2.288 1.338.269 1.844.319 3.313.319 1.475 0 2.081-.063 3.325-.319 5.5-1.15 10.094-5.262 11.863-10.637.575-1.738.781-3.069.781-5.012 0-1.881-.2-3.206-.725-4.844-.775-2.438-2.063-4.55-3.887-6.4C24.863 2.233 21.776.677 18.22.152c-.769-.113-2.988-.163-3.75-.081zm6.625 13.806-4.313 4.313h-1.563L6.593 9.563h18.813l-4.313 4.313zM8.825 19.2l-2.95 2.956V10.343l2.95 2.956 2.956 2.95-2.956 2.95zm17.3-2.938v5.894l-5.906-5.906 2.938-2.938a541.045 541.045 0 0 1 2.95-2.938c.012 0 .019 2.65.019 5.887zm-12.45 1.875 1.075 1.081h2.5l1.075-1.081c.594-.587 1.113-1.075 1.144-1.075.038 0 1.275 1.206 2.75 2.688l2.688 2.688H7.094l2.688-2.688c1.475-1.481 2.713-2.688 2.75-2.688.031 0 .55.488 1.144 1.075z"/></symbol><symbol id="icon-linkedin-1" viewBox="0 0 32 32"><path d="M31.992 32v-.001H32V20.263c0-5.741-1.236-10.164-7.948-10.164-3.227 0-5.392 1.771-6.276 3.449h-.093v-2.913h-6.364v21.364h6.627V21.42c0-2.785.528-5.479 3.977-5.479 3.399 0 3.449 3.179 3.449 5.657v10.401h6.62zM.528 10.636h6.635V32H.528V10.636zM3.843 0C1.722 0 0 1.721 0 3.843s1.721 3.879 3.843 3.879c2.121 0 3.843-1.757 3.843-3.879A3.846 3.846 0 0 0 3.843 0z"/></symbol><symbol id="icon-github" viewBox="0 0 32 32"><path d="M14.9.375C8.575.806 3.081 4.987.931 11.019.6 11.931.294 13.2.15 14.219c-.144.981-.156 3.1-.031 4.094.637 5.1 3.594 9.538 8.044 12.075 1.025.587 2.612 1.25 3.019 1.262.319.006.588-.125.725-.356.113-.188.119-.313.1-1.669a44.197 44.197 0 0 0-.025-1.475 4.547 4.547 0 0 0-.512.075c-1.644.269-3.106-.1-4.037-1.031-.362-.363-.475-.538-.838-1.288-.588-1.225-.931-1.694-1.594-2.175-.487-.35-.75-.613-.75-.744 0-.313.756-.419 1.356-.188.781.294 1.3.744 1.869 1.613.787 1.194 1.775 1.725 3.031 1.631.481-.038 1.456-.306 1.531-.425.019-.038.081-.238.125-.444.119-.5.425-1.131.688-1.425.25-.281.275-.262-.537-.375-.644-.087-1.762-.375-2.3-.587-2.263-.894-3.569-2.563-4.056-5.181-.156-.837-.156-2.894 0-3.544a6.274 6.274 0 0 1 1.219-2.488l.269-.331-.094-.294c-.325-1.006-.287-2.313.1-3.525.125-.381.15-.419.338-.456.669-.125 2.2.425 3.6 1.288l.613.381.544-.125c1.275-.294 1.863-.356 3.456-.356 1.6 0 2.181.063 3.456.356l.55.125.481-.3c.956-.6 1.9-1.044 2.544-1.206.531-.131.994-.194 1.194-.156.175.031.206.075.325.45.356 1.113.419 2.525.144 3.388l-.131.406.125.156c.613.756 1.094 1.681 1.325 2.556.163.613.225 2.175.119 3.05-.462 3.8-2.544 5.844-6.506 6.394-.75.1-.738.094-.519.331.288.3.563.837.719 1.394.125.462.137.663.169 3.306.044 3.075.031 3.012.413 3.169.294.125.637.081 1.25-.163 2.175-.844 3.887-1.944 5.525-3.556a16.092 16.092 0 0 0 4.7-9.544c.125-.994.113-3.113-.031-4.094C30.774 6.599 24.661.899 17.024.374c-1.006-.069-1.094-.069-2.119 0z"/></symbol><symbol id="icon-instagram-2" viewBox="0 0 32 32"><path d="M31.969 9.408c-.075-1.7-.35-2.869-.744-3.882a7.806 7.806 0 0 0-1.851-2.838A7.867 7.867 0 0 0 26.542.844C25.523.45 24.36.175 22.66.1 20.947.019 20.403 0 16.059 0s-4.888.019-6.595.094c-1.7.075-2.869.35-3.882.744a7.803 7.803 0 0 0-2.838 1.85A7.867 7.867 0 0 0 .9 5.52C.506 6.539.231 7.702.156 9.402c-.081 1.713-.1 2.257-.1 6.601s.019 4.888.094 6.595c.075 1.7.35 2.869.744 3.882a7.895 7.895 0 0 0 1.85 2.838 7.867 7.867 0 0 0 2.832 1.844c1.019.394 2.182.669 3.882.744 1.706.075 2.25.094 6.595.094s4.888-.019 6.595-.094c1.7-.075 2.869-.35 3.882-.744a8.184 8.184 0 0 0 4.682-4.682c.394-1.019.669-2.182.744-3.882.075-1.707.094-2.251.094-6.595s-.006-4.888-.081-6.595zm-2.882 13.065c-.069 1.563-.331 2.407-.55 2.969a5.31 5.31 0 0 1-3.038 3.038c-.563.219-1.413.481-2.969.55-1.688.075-2.194.094-6.464.094s-4.782-.019-6.464-.094c-1.563-.069-2.407-.331-2.969-.55a4.926 4.926 0 0 1-1.838-1.194 4.974 4.974 0 0 1-1.194-1.838c-.219-.563-.481-1.413-.55-2.969-.075-1.688-.094-2.194-.094-6.464s.019-4.782.094-6.464c.069-1.563.331-2.407.55-2.969a4.868 4.868 0 0 1 1.2-1.838A4.974 4.974 0 0 1 6.639 3.55c.563-.219 1.413-.481 2.969-.55 1.688-.075 2.194-.094 6.464-.094 4.276 0 4.782.019 6.464.094 1.563.069 2.407.331 2.969.55a4.914 4.914 0 0 1 1.838 1.194 4.974 4.974 0 0 1 1.194 1.838c.219.563.481 1.413.55 2.969.075 1.688.094 2.194.094 6.464s-.019 4.77-.094 6.458z"/><path d="M16.059 7.783c-4.538 0-8.22 3.682-8.22 8.22s3.682 8.22 8.22 8.22c4.539 0 8.22-3.682 8.22-8.22s-3.682-8.22-8.22-8.22zm0 13.552a5.333 5.333 0 0 1 0-10.664 5.333 5.333 0 0 1 0 10.664zM26.524 7.458a1.919 1.919 0 1 1-3.838 0 1.919 1.919 0 0 1 3.838 0z"/></symbol></defs></svg>