<svg aria-hidden="true" style="width:0;height:0;position:absolute;overflow:hidden" xmlns="http://www.w3.org/2000/svg"><defs><symbol id="place-weather" viewBox="0 0 32 32"><path d="M16 2A11.018 11.018 0 0 0 5 13a10.892 10.892 0 0 0 2.216 6.6s.3.395.349.452L16 30l8.439-9.953c.044-.053.345-.447.345-.447l.001-.003A10.89 10.89 0 0 0 27 13 11.018 11.018 0 0 0 16 2zm0 15a4.004 4.004 0 0 1-3.695-2.469A4 4 0 1 1 20 13a4.004 4.004 0 0 1-4 4z"/></symbol><symbol id="already-read" viewBox="0 0 32 32"><path d="M28.779 6.389c-.277.008-.54.124-.733.323L11.733 23.024 5.02 16.312a1.065 1.065 0 1 0-1.508 1.507l7.467 7.467a1.066 1.066 0 0 0 1.508 0L29.554 8.219a1.072 1.072 0 0 0 .239-1.18 1.066 1.066 0 0 0-1.013-.65z"/></symbol><symbol id="pg-favorite-cut" viewBox="0 0 32 32"><path stroke-linejoin="round" stroke-linecap="round" stroke-width="1.778" d="M27.788 6.146a7.345 7.345 0 0 0-5.187-2.15 7.33 7.33 0 0 0-5.187 2.15l-1.413 1.413-1.413-1.413a7.333 7.333 0 0 0-10.374 0 7.333 7.333 0 0 0 0 10.374l11.787 11.787L27.788 16.52a7.345 7.345 0 0 0 2.149-5.187 7.33 7.33 0 0 0-2.149-5.187z"/></symbol><symbol id="pg-read-cut" viewBox="0 0 32 32"><path stroke-linejoin="round" stroke-linecap="round" stroke-width="1.778" d="M2.667 4h8A5.332 5.332 0 0 1 16 9.333V28a4.003 4.003 0 0 0-4-4H2.667V4z"/><path stroke-linejoin="round" stroke-linecap="round" stroke-width="1.778" d="M29.333 4h-8A5.334 5.334 0 0 0 16 9.333V28a4.003 4.003 0 0 1 4-4h9.333V4z"/></symbol><symbol id="pg-home-cut" viewBox="0 0 32 32"><path stroke-linejoin="round" stroke-linecap="round" stroke-width="1.778" d="m4 12 12-9.333L28 12v14.667a2.668 2.668 0 0 1-2.667 2.667H6.666a2.668 2.668 0 0 1-2.667-2.667V12z"/><path stroke-linejoin="round" stroke-linecap="round" stroke-width="1.778" d="M12 29.333V16h8v13.333"/></symbol><symbol id="btn-close" viewBox="0 0 32 32"><path stroke-linejoin="round" stroke-linecap="round" stroke-width="2.667" d="M24 8 8 24M8 8l16 16"/></symbol><symbol id="btn-burger" viewBox="0 0 32 32"><path stroke-linejoin="round" stroke-linecap="round" stroke-width="2.667" d="M4 16h24M4 8h24M4 24h24"/></symbol><symbol id="moon" viewBox="0 0 32 32"><path stroke-linejoin="round" stroke-linecap="round" stroke-width="2.286" d="M28 17.053a11.994 11.994 0 0 1-7.873 10.182A12.003 12.003 0 0 1 4.338 18.56 12.002 12.002 0 0 1 14.946 3.999 9.335 9.335 0 0 0 28 17.053z"/></symbol><symbol id="sun" viewBox="0 0 32 32"><path stroke-linejoin="round" stroke-linecap="round" stroke-width="2.286" d="M16 1.778v2.586m0 23.272v2.586M5.941 5.941l1.836 1.836m16.447 16.446 1.836 1.836M1.778 16h2.586m23.273 0h2.586M5.941 26.059l1.836-1.836M24.224 7.777l1.836-1.836M22.465 16a6.465 6.465 0 1 1-12.93 0 6.465 6.465 0 0 1 12.93 0z"/></symbol><symbol id="calendar" viewBox="0 0 32 32"><path d="M22.667 4H28a1.335 1.335 0 0 1 1.334 1.334v21.333A1.335 1.335 0 0 1 28 28.001H4a1.335 1.335 0 0 1-1.334-1.334V5.334A1.335 1.335 0 0 1 4 4h5.333V1.333H12V4h8V1.333h2.667V4zm4 10.667H5.334v10.667h21.333V14.667zm-6.667-8h-8v2.667H9.333V6.667h-4V12h21.333V6.667h-4v2.667h-2.667V6.667zM8.001 17.334h2.667v2.667H8.001v-2.667zm6.666 0h2.667v2.667h-2.667v-2.667zm6.667 0h2.667v2.667h-2.667v-2.667z"/></symbol><symbol id="heart-border" viewBox="0 0 32 32"><path stroke-linejoin="round" stroke-linecap="round" stroke-width="2" d="M9.333 4c-3.681 0-6.667 2.955-6.667 6.6 0 2.943 1.167 9.927 12.651 16.987a1.316 1.316 0 0 0 1.366 0c11.484-7.06 12.651-14.044 12.651-16.987 0-3.645-2.985-6.6-6.667-6.6S16 8 16 8s-2.985-4-6.667-4z"/></symbol><symbol id="heart-fill" viewBox="0 0 32 32"><path d="M9.333 4c-3.681 0-6.667 2.955-6.667 6.6 0 2.943 1.167 9.927 12.651 16.987a1.316 1.316 0 0 0 1.366 0c11.484-7.06 12.651-14.044 12.651-16.987 0-3.645-2.985-6.6-6.667-6.6S16 8 16 8s-2.985-4-6.667-4z"/></symbol><symbol id="scroll-down" viewBox="0 0 32 32"><path d="M3.76 9.143 0 12.622l16 14.806 16-14.806-3.76-3.479L16 20.445 3.76 9.143z"/></symbol><symbol id="scroll-up" viewBox="0 0 32 32"><path d="M3.76 25.143 0 21.664 16 6.858l16 14.806-3.76 3.479L16 13.841 3.76 25.143z"/></symbol><symbol id="search" viewBox="0 0 32 32"><path d="M13.464 23.726c2.277 0 4.489-.763 6.283-2.165l5.64 5.64 1.814-1.814-5.64-5.64a10.202 10.202 0 0 0 2.167-6.284c0-5.659-4.604-10.263-10.264-10.263S3.2 7.804 3.2 13.463s4.604 10.263 10.264 10.263zm0-17.96c4.245 0 7.698 3.452 7.698 7.697s-3.452 7.697-7.698 7.697c-4.245 0-7.698-3.452-7.698-7.697s3.452-7.697 7.698-7.697z"/></symbol><symbol id="icon-next" viewBox="0 0 16 32"><path fill="#4440f6" style="fill:var(--color1,#4440f6)" d="M16 16a2.309 2.309 0 0 0-.643-1.567L3.165 1.468c-.36-.375-.784-.579-1.301-.579-1.05 0-1.865.886-1.865 2.027 0 .545.204 1.056.564 1.448L11.533 16 .563 27.636a2.1 2.1 0 0 0-.564 1.448c0 1.142.815 2.027 1.865 2.027.501 0 .94-.204 1.301-.579L15.357 17.55c.439-.443.642-.954.642-1.55z"/></symbol><symbol id="icon-prev" viewBox="0 0 16 32"><path fill="#4440f6" style="fill:var(--color1,#4440f6)" d="M0 16c0 .596.204 1.107.642 1.55l12.192 12.982c.345.375.784.579 1.301.579 1.034 0 1.865-.886 1.865-2.027 0-.562-.219-1.056-.564-1.448L4.451 16 15.436 4.364c.345-.392.564-.903.564-1.448 0-1.141-.831-2.027-1.865-2.027-.517 0-.956.204-1.301.579L.642 14.433C.203 14.893 0 15.404 0 16z"/></symbol><symbol id="icon-linkedin" viewBox="0 0 32 32"><path d="M31.992 32v-.001H32V20.263c0-5.741-1.236-10.164-7.948-10.164-3.227 0-5.392 1.771-6.276 3.449h-.093v-2.913h-6.364v21.364h6.627V21.42c0-2.785.528-5.479 3.977-5.479 3.399 0 3.449 3.179 3.449 5.657v10.401h6.62zM.528 10.636h6.635V32H.528V10.636zM3.843 0C1.722 0 0 1.721 0 3.843s1.721 3.879 3.843 3.879c2.121 0 3.843-1.757 3.843-3.879A3.846 3.846 0 0 0 3.843 0z"/></symbol><symbol id="icon-github" viewBox="0 0 32 32"><path d="M14.9.375C8.575.806 3.081 4.987.931 11.019.6 11.931.294 13.2.15 14.219c-.144.981-.156 3.1-.031 4.094.637 5.1 3.594 9.538 8.044 12.075 1.025.587 2.612 1.25 3.019 1.262.319.006.588-.125.725-.356.113-.188.119-.313.1-1.669a44.197 44.197 0 0 0-.025-1.475 4.547 4.547 0 0 0-.512.075c-1.644.269-3.106-.1-4.037-1.031-.362-.363-.475-.538-.838-1.288-.588-1.225-.931-1.694-1.594-2.175-.487-.35-.75-.613-.75-.744 0-.313.756-.419 1.356-.188.781.294 1.3.744 1.869 1.613.787 1.194 1.775 1.725 3.031 1.631.481-.038 1.456-.306 1.531-.425.019-.038.081-.238.125-.444.119-.5.425-1.131.688-1.425.25-.281.275-.262-.537-.375-.644-.087-1.762-.375-2.3-.587-2.263-.894-3.569-2.563-4.056-5.181-.156-.837-.156-2.894 0-3.544a6.274 6.274 0 0 1 1.219-2.488l.269-.331-.094-.294c-.325-1.006-.287-2.313.1-3.525.125-.381.15-.419.338-.456.669-.125 2.2.425 3.6 1.288l.613.381.544-.125c1.275-.294 1.863-.356 3.456-.356 1.6 0 2.181.063 3.456.356l.55.125.481-.3c.956-.6 1.9-1.044 2.544-1.206.531-.131.994-.194 1.194-.156.175.031.206.075.325.45.356 1.113.419 2.525.144 3.388l-.131.406.125.156c.613.756 1.094 1.681 1.325 2.556.163.613.225 2.175.119 3.05-.462 3.8-2.544 5.844-6.506 6.394-.75.1-.738.094-.519.331.288.3.563.837.719 1.394.125.462.137.663.169 3.306.044 3.075.031 3.012.413 3.169.294.125.637.081 1.25-.163 2.175-.844 3.887-1.944 5.525-3.556a16.092 16.092 0 0 0 4.7-9.544c.125-.994.113-3.113-.031-4.094C30.774 6.599 24.661.899 17.024.374c-1.006-.069-1.094-.069-2.119 0z"/></symbol><symbol id="icon-email" viewBox="0 0 32 32"><path d="M14.469.069c-5 .519-9.381 3.237-12.044 7.475C-.619 12.382-.8 18.65 1.956 23.657a16.34 16.34 0 0 0 5.256 5.706c1.488.994 3.75 1.944 5.475 2.288 1.338.269 1.844.319 3.313.319 1.475 0 2.081-.063 3.325-.319 5.5-1.15 10.094-5.262 11.863-10.637.575-1.738.781-3.069.781-5.012 0-1.881-.2-3.206-.725-4.844-.775-2.438-2.063-4.55-3.887-6.4C24.863 2.233 21.776.677 18.22.152c-.769-.113-2.988-.163-3.75-.081zm6.625 13.806-4.313 4.313h-1.563L6.593 9.563h18.813l-4.313 4.313zM8.825 19.2l-2.95 2.956V10.343l2.95 2.956 2.956 2.95-2.956 2.95zm17.3-2.938v5.894l-5.906-5.906 2.938-2.938a541.045 541.045 0 0 1 2.95-2.938c.012 0 .019 2.65.019 5.887zm-12.45 1.875 1.075 1.081h2.5l1.075-1.081c.594-.587 1.113-1.075 1.144-1.075.038 0 1.275 1.206 2.75 2.688l2.688 2.688H7.094l2.688-2.688c1.475-1.481 2.713-2.688 2.75-2.688.031 0 .55.488 1.144 1.075z"/></symbol><symbol id="icon-close-tag-x" viewBox="0 0 32 32"><path d="m26.667 7.303-1.97-1.97-7.808 7.808-7.808-7.808-1.97 1.97 7.808 7.808-7.808 7.808 1.97 1.97 7.808-7.808 7.808 7.808 1.97-1.97-7.808-7.808 7.808-7.808z"/></symbol></defs></svg>