<svg width="18" height="18" viewBox="0 0 18 18" fill="none" xmlns="http://www.w3.org/2000/svg">
<path d="M16.188 3.59401C16.0321 3.59866 15.8842 3.6638 15.7755 3.77565L6.59971 12.9514L2.82393 9.17565C2.76864 9.11807 2.70242 9.07209 2.62914 9.04042C2.55586 9.00875 2.477 8.99202 2.39718 8.99121C2.31736 8.9904 2.23817 9.00552 2.16427 9.03569C2.09036 9.06587 2.02322 9.11048 1.96677 9.16693C1.91032 9.22338 1.86571 9.29052 1.83553 9.36443C1.80536 9.43833 1.79023 9.51752 1.79105 9.59734C1.79186 9.67717 1.80859 9.75603 1.84026 9.8293C1.87193 9.90258 1.91791 9.9688 1.97549 10.0241L6.17549 14.2241C6.28802 14.3366 6.44061 14.3998 6.59971 14.3998C6.75881 14.3998 6.9114 14.3366 7.02393 14.2241L16.6239 4.62409C16.7106 4.53981 16.7698 4.43131 16.7938 4.3128C16.8178 4.19428 16.8054 4.07129 16.7583 3.95994C16.7112 3.84859 16.6315 3.75407 16.5297 3.68877C16.428 3.62348 16.3089 3.59045 16.188 3.59401Z" fill="#00DD73"/>
</svg>
