<svg aria-hidden="true" style="position: absolute; width: 0; height: 0; overflow: hidden;" version="1.1" xmlns="http://www.w3.org/2000/svg" xmlns:xlink="http://www.w3.org/1999/xlink">
<defs>
<symbol id="place-weather" viewBox="0 0 32 32">
<path d="M16 2c-2.916 0.003-5.712 1.163-7.774 3.226s-3.222 4.858-3.226 7.774c-0.003 2.383 0.775 4.702 2.216 6.6 0 0 0.3 0.395 0.349 0.452l8.435 9.948 8.439-9.953c0.044-0.053 0.345-0.447 0.345-0.447l0.001-0.003c1.44-1.897 2.218-4.215 2.215-6.597-0.003-2.916-1.163-5.712-3.226-7.774s-4.858-3.222-7.774-3.226zM16 17c-0.791 0-1.564-0.235-2.222-0.674s-1.171-1.064-1.473-1.795c-0.303-0.731-0.382-1.535-0.228-2.311s0.535-1.489 1.095-2.048 1.272-0.94 2.048-1.095c0.776-0.154 1.58-0.075 2.311 0.228s1.356 0.815 1.795 1.473c0.44 0.658 0.674 1.431 0.674 2.222-0.001 1.060-0.423 2.077-1.173 2.827s-1.767 1.172-2.827 1.173z"></path>
</symbol>
<symbol id="already-read" viewBox="0 0 32 32">
<path d="M28.779 6.389c-0.277 0.008-0.54 0.124-0.733 0.323l-16.313 16.312-6.713-6.712c-0.098-0.102-0.216-0.184-0.346-0.24s-0.27-0.086-0.412-0.088c-0.142-0.001-0.283 0.025-0.414 0.079s-0.251 0.133-0.351 0.233c-0.1 0.1-0.18 0.22-0.233 0.351s-0.081 0.272-0.079 0.414c0.001 0.142 0.031 0.282 0.087 0.412s0.138 0.248 0.24 0.346l7.467 7.467c0.2 0.2 0.471 0.312 0.754 0.312s0.554-0.112 0.754-0.312l17.067-17.067c0.154-0.15 0.259-0.343 0.302-0.553s0.021-0.429-0.063-0.627c-0.084-0.198-0.225-0.366-0.406-0.482s-0.393-0.175-0.607-0.168z"></path>
</symbol>
<symbol id="pg-favorite-cut" viewBox="0 0 32 32">
<path stroke-linejoin="round" stroke-linecap="round" stroke-miterlimit="4" stroke-width="1.7778" d="M27.788 6.146c-0.681-0.681-1.49-1.222-2.38-1.591s-1.844-0.559-2.807-0.559c-0.963 0-1.917 0.19-2.807 0.559s-1.699 0.909-2.38 1.591l-1.413 1.413-1.413-1.413c-1.376-1.376-3.241-2.148-5.187-2.148s-3.811 0.773-5.187 2.148c-1.376 1.376-2.148 3.241-2.148 5.187s0.773 3.811 2.148 5.187l11.787 11.787 11.787-11.787c0.681-0.681 1.222-1.49 1.591-2.38s0.558-1.844 0.558-2.807-0.19-1.917-0.558-2.807c-0.369-0.89-0.909-1.699-1.591-2.38v0z"></path>
</symbol>
<symbol id="pg-read-cut" viewBox="0 0 32 32">
<path stroke-linejoin="round" stroke-linecap="round" stroke-miterlimit="4" stroke-width="1.7778" d="M2.667 4h8c1.415 0 2.771 0.562 3.771 1.562s1.562 2.357 1.562 3.771v18.667c0-1.061-0.421-2.078-1.172-2.828s-1.768-1.172-2.828-1.172h-9.333v-20z"></path>
<path stroke-linejoin="round" stroke-linecap="round" stroke-miterlimit="4" stroke-width="1.7778" d="M29.333 4h-8c-1.414 0-2.771 0.562-3.771 1.562s-1.562 2.357-1.562 3.771v18.667c0-1.061 0.421-2.078 1.172-2.828s1.768-1.172 2.828-1.172h9.333v-20z"></path>
</symbol>
<symbol id="pg-home-cut" viewBox="0 0 32 32">
<path stroke-linejoin="round" stroke-linecap="round" stroke-miterlimit="4" stroke-width="1.7778" d="M4 12l12-9.333 12 9.333v14.667c0 0.707-0.281 1.386-0.781 1.886s-1.178 0.781-1.886 0.781h-18.667c-0.707 0-1.386-0.281-1.886-0.781s-0.781-1.178-0.781-1.886v-14.667z"></path>
<path stroke-linejoin="round" stroke-linecap="round" stroke-miterlimit="4" stroke-width="1.7778" d="M12 29.333v-13.333h8v13.333"></path>
</symbol>
<symbol id="btn-close" viewBox="0 0 32 32">
<path stroke-linejoin="round" stroke-linecap="round" stroke-miterlimit="4" stroke-width="2.6667" d="M24 8l-16 16"></path>
<path stroke-linejoin="round" stroke-linecap="round" stroke-miterlimit="4" stroke-width="2.6667" d="M8 8l16 16"></path>
</symbol>
<symbol id="btn-burger" viewBox="0 0 32 32">
<path stroke-linejoin="round" stroke-linecap="round" stroke-miterlimit="4" stroke-width="2.6667" d="M4 16h24"></path>
<path stroke-linejoin="round" stroke-linecap="round" stroke-miterlimit="4" stroke-width="2.6667" d="M4 8h24"></path>
<path stroke-linejoin="round" stroke-linecap="round" stroke-miterlimit="4" stroke-width="2.6667" d="M4 24h24"></path>
</symbol>
<symbol id="moon" viewBox="0 0 32 32">
<path stroke-linejoin="round" stroke-linecap="round" stroke-miterlimit="4" stroke-width="2.2857" d="M28 17.053c-0.21 2.27-1.061 4.433-2.456 6.236s-3.273 3.172-5.417 3.946c-2.144 0.774-4.464 0.922-6.688 0.426s-4.262-1.615-5.874-3.227c-1.612-1.612-2.731-3.649-3.227-5.874s-0.348-4.544 0.426-6.688 2.143-4.023 3.946-5.417c1.803-1.394 3.966-2.246 6.236-2.456-1.329 1.798-1.968 4.013-1.802 6.242s1.127 4.325 2.708 5.906c1.581 1.581 3.676 2.542 5.906 2.708s4.444-0.473 6.242-1.802v0z"></path>
</symbol>
<symbol id="sun" viewBox="0 0 32 32">
<path stroke-linejoin="round" stroke-linecap="round" stroke-miterlimit="4" stroke-width="2.2857" d="M16 1.778v2.586M16 27.636v2.586M5.941 5.941l1.836 1.836M24.224 24.223l1.836 1.836M1.778 16h2.586M27.637 16h2.586M5.941 26.059l1.836-1.836M24.224 7.777l1.836-1.836M22.465 16c0 3.57-2.894 6.465-6.465 6.465s-6.465-2.894-6.465-6.465c0-3.57 2.894-6.465 6.465-6.465s6.465 2.894 6.465 6.465z"></path>
</symbol>
<symbol id="calendar" viewBox="0 0 32 32">
<path d="M22.667 4h5.333c0.354 0 0.693 0.14 0.943 0.391s0.391 0.589 0.391 0.943v21.333c0 0.354-0.14 0.693-0.391 0.943s-0.589 0.391-0.943 0.391h-24c-0.354 0-0.693-0.14-0.943-0.391s-0.391-0.589-0.391-0.943v-21.333c0-0.354 0.14-0.693 0.391-0.943s0.589-0.391 0.943-0.391h5.333v-2.667h2.667v2.667h8v-2.667h2.667v2.667zM26.667 14.667h-21.333v10.667h21.333v-10.667zM20 6.667h-8v2.667h-2.667v-2.667h-4v5.333h21.333v-5.333h-4v2.667h-2.667v-2.667zM8.001 17.334h2.667v2.667h-2.667v-2.667zM14.667 17.334h2.667v2.667h-2.667v-2.667zM21.334 17.334h2.667v2.667h-2.667v-2.667z"></path>
</symbol>
<symbol id="heart-border" viewBox="0 0 32 32">
<path stroke-linejoin="round" stroke-linecap="round" stroke-miterlimit="4" stroke-width="2" d="M9.333 4c-3.681 0-6.667 2.955-6.667 6.6 0 2.943 1.167 9.927 12.651 16.987 0.206 0.125 0.442 0.191 0.683 0.191s0.477-0.066 0.683-0.191c11.484-7.060 12.651-14.044 12.651-16.987 0-3.645-2.985-6.6-6.667-6.6s-6.667 4-6.667 4-2.985-4-6.667-4z"></path>
</symbol>
<symbol id="heart-fill" viewBox="0 0 32 32">
<path d="M9.333 4c-3.681 0-6.667 2.955-6.667 6.6 0 2.943 1.167 9.927 12.651 16.987 0.206 0.125 0.442 0.191 0.683 0.191s0.477-0.066 0.683-0.191c11.484-7.060 12.651-14.044 12.651-16.987 0-3.645-2.985-6.6-6.667-6.6s-6.667 4-6.667 4-2.985-4-6.667-4z"></path>
</symbol>
<symbol id="scroll-down" viewBox="0 0 32 32">
<path d="M3.76 9.143l-3.76 3.479 16 14.806 16-14.806-3.76-3.479-12.24 11.302-12.24-11.302z"></path>
</symbol>
<symbol id="scroll-up" viewBox="0 0 32 32">
<path d="M3.76 25.143l-3.76-3.479 16-14.806 16 14.806-3.76 3.479-12.24-11.302-12.24 11.302z"></path>
</symbol>
<symbol id="search" viewBox="0 0 32 32">
<path d="M13.464 23.726c2.277-0 4.489-0.763 6.283-2.165l5.64 5.64 1.814-1.814-5.64-5.64c1.404-1.794 2.166-4.006 2.167-6.284 0-5.659-4.604-10.263-10.264-10.263s-10.264 4.604-10.264 10.263 4.604 10.263 10.264 10.263zM13.464 5.766c4.245 0 7.698 3.452 7.698 7.697s-3.452 7.697-7.698 7.697c-4.245 0-7.698-3.452-7.698-7.697s3.452-7.697 7.698-7.697z"></path>
</symbol>
<symbol id="icon-next" viewBox="0 0 16 32">
<path fill="#4440f6" style="fill: var(--color1, #4440f6)" d="M16 16c-0.016-0.596-0.219-1.107-0.643-1.567l-12.192-12.965c-0.36-0.375-0.784-0.579-1.301-0.579-1.050 0-1.865 0.886-1.865 2.027 0 0.545 0.204 1.056 0.564 1.448l10.97 11.636-10.97 11.636c-0.36 0.392-0.564 0.886-0.564 1.448 0 1.142 0.815 2.027 1.865 2.027 0.501 0 0.94-0.204 1.301-0.579l12.192-12.982c0.439-0.443 0.642-0.954 0.642-1.55z"></path>
</symbol>
<symbol id="icon-prev" viewBox="0 0 16 32">
<path fill="#4440f6" style="fill: var(--color1, #4440f6)" d="M0 16c0 0.596 0.204 1.107 0.642 1.55l12.192 12.982c0.345 0.375 0.784 0.579 1.301 0.579 1.034 0 1.865-0.886 1.865-2.027 0-0.562-0.219-1.056-0.564-1.448l-10.985-11.636 10.985-11.636c0.345-0.392 0.564-0.903 0.564-1.448 0-1.141-0.831-2.027-1.865-2.027-0.517 0-0.956 0.204-1.301 0.579l-12.192 12.965c-0.439 0.46-0.642 0.971-0.642 1.567z"></path>
</symbol>
<symbol id="icon-linkedin" viewBox="0 0 32 32">
<path d="M31.992 32v-.001H32V20.263c0-5.741-1.236-10.164-7.948-10.164-3.227 0-5.392 1.771-6.276 3.449h-.093v-2.913h-6.364v21.364h6.627V21.42c0-2.785.528-5.479 3.977-5.479 3.399 0 3.449 3.179 3.449 5.657v10.401h6.62zM.528 10.636h6.635V32H.528V10.636zM3.843 0C1.722 0 0 1.721 0 3.843s1.721 3.879 3.843 3.879c2.121 0 3.843-1.757 3.843-3.879A3.846 3.846 0 0 0 3.843 0z" />
</symbol>
<symbol id="icon-github" viewBox="0 0 32 32">
<path d="M14.9 0.375c-6.325 0.431-11.819 4.612-13.969 10.644-0.331 0.912-0.637 2.181-0.781 3.2-0.144 0.981-0.156 3.1-0.031 4.094 0.637 5.1 3.594 9.538 8.044 12.075 1.025 0.587 2.612 1.25 3.019 1.262 0.319 0.006 0.588-0.125 0.725-0.356 0.113-0.188 0.119-0.313 0.1-1.669-0.006-0.806-0.019-1.475-0.025-1.475-0.006-0.006-0.238 0.025-0.512 0.075-1.644 0.269-3.106-0.1-4.037-1.031-0.362-0.363-0.475-0.538-0.838-1.288-0.588-1.225-0.931-1.694-1.594-2.175-0.487-0.35-0.75-0.613-0.75-0.744 0-0.313 0.756-0.419 1.356-0.188 0.781 0.294 1.3 0.744 1.869 1.613 0.787 1.194 1.775 1.725 3.031 1.631 0.481-0.038 1.456-0.306 1.531-0.425 0.019-0.038 0.081-0.238 0.125-0.444 0.119-0.5 0.425-1.131 0.688-1.425 0.25-0.281 0.275-0.262-0.537-0.375-0.644-0.087-1.762-0.375-2.3-0.587-2.263-0.894-3.569-2.563-4.056-5.181-0.156-0.837-0.156-2.894 0-3.544 0.225-0.931 0.644-1.781 1.219-2.488l0.269-0.331-0.094-0.294c-0.325-1.006-0.287-2.313 0.1-3.525 0.125-0.381 0.15-0.419 0.338-0.456 0.669-0.125 2.2 0.425 3.6 1.288l0.613 0.381 0.544-0.125c1.275-0.294 1.863-0.356 3.456-0.356 1.6 0 2.181 0.063 3.456 0.356l0.55 0.125 0.481-0.3c0.956-0.6 1.9-1.044 2.544-1.206 0.531-0.131 0.994-0.194 1.194-0.156 0.175 0.031 0.206 0.075 0.325 0.45 0.356 1.113 0.419 2.525 0.144 3.388l-0.131 0.406 0.125 0.156c0.613 0.756 1.094 1.681 1.325 2.556 0.163 0.613 0.225 2.175 0.119 3.050-0.462 3.8-2.544 5.844-6.506 6.394-0.75 0.1-0.738 0.094-0.519 0.331 0.288 0.3 0.563 0.837 0.719 1.394 0.125 0.462 0.137 0.663 0.169 3.306 0.044 3.075 0.031 3.012 0.413 3.169 0.294 0.125 0.637 0.081 1.25-0.163 2.175-0.844 3.887-1.944 5.525-3.556 2.606-2.563 4.244-5.887 4.7-9.544 0.125-0.994 0.113-3.113-0.031-4.094-1.081-7.619-7.194-13.319-14.831-13.844-1.006-0.069-1.094-0.069-2.119 0z"></path>
</symbol>
<symbol id="icon-email" viewBox="0 0 32 32">
<path d="M14.469 0.069c-5 0.519-9.381 3.237-12.044 7.475-3.044 4.838-3.225 11.106-0.469 16.113 1.25 2.275 3.044 4.225 5.256 5.706 1.488 0.994 3.75 1.944 5.475 2.288 1.338 0.269 1.844 0.319 3.313 0.319 1.475 0 2.081-0.063 3.325-0.319 5.5-1.15 10.094-5.262 11.863-10.637 0.575-1.738 0.781-3.069 0.781-5.012 0-1.881-0.2-3.206-0.725-4.844-0.775-2.438-2.063-4.55-3.887-6.4-2.494-2.525-5.581-4.081-9.137-4.606-0.769-0.113-2.988-0.163-3.75-0.081zM21.094 13.875l-4.313 4.313h-1.563l-8.625-8.625h18.813l-4.313 4.313zM8.825 19.2l-2.95 2.956v-11.813l2.95 2.956 2.956 2.95-2.956 2.95zM26.125 16.262v5.894l-5.906-5.906 2.938-2.938c1.613-1.613 2.944-2.938 2.95-2.938 0.012 0 0.019 2.65 0.019 5.887zM13.675 18.137l1.075 1.081h2.5l1.075-1.081c0.594-0.587 1.113-1.075 1.144-1.075 0.038 0 1.275 1.206 2.75 2.688l2.688 2.688h-17.813l2.688-2.688c1.475-1.481 2.713-2.688 2.75-2.688 0.031 0 0.55 0.488 1.144 1.075z"></path>
</symbol>
<symbol id="icon-close-tag-x" viewBox="0 0 32 32">
<path d="M26.667 7.303l-1.97-1.97-7.808 7.808-7.808-7.808-1.97 1.97 7.808 7.808-7.808 7.808 1.97 1.97 7.808-7.808 7.808 7.808 1.97-1.97-7.808-7.808 7.808-7.808z"></path>
</symbol>
</defs>
</svg>
